<svg id="Layer_1" data-name="Layer 1" xmlns="http://www.w3.org/2000/svg" viewBox="0 0 1179.08 130"><defs><style>.cls-1{fill:#5ace49;}</style></defs><path class="cls-1" d="M218.15,68.88c6.61,7.2,13.72,14.51,19.15,19.55.1.39.1,7.7,0,8.09l-16.88.3a260.15,260.15,0,0,0-16.89-22.71c-1.48,0-3.65-.1-6.12-.2.1,9.18.5,17.68.89,22.61H179.74c.59-6.81,1-19.84,1-32.38V59.4c0-12.84-.4-25.77-1-32.49h3.65c6.32,0,22.71-1.28,23.7-1.28,15.4,0,25.67,8.88,25.67,22.12,0,8.39-4,15.2-11.95,19.64Zm-2.67-18.67c0-7.7-4.44-12.34-11.95-12.34a49.89,49.89,0,0,0-6,.4c-.1,5.53-.2,12.54-.2,21v3.06c2.47.1,4.64.2,5.83.2C210.84,62.56,215.48,58,215.48,50.21Z" transform="translate(0.25 0.08)"/><path class="cls-1" d="M266.44,98.4c-15.41,0-25.68-10.07-25.68-25.48,0-9.38,3.76-17.67,10.77-22.41,6.22-4.25,15.79-6.52,16.68-6.52,14.91,0,22.71,9.28,21.23,25.08l-5.73,3.85-25.87-.29c.4,8.09,5.53,12.93,14.12,12.93a31,31,0,0,0,13.73-3.26l3.75,10A47.22,47.22,0,0,1,266.44,98.4Zm-8.69-31.8,15.5-.69c-.1-6.71-2.67-10.27-7.21-10.27C261.2,55.64,258.14,59.4,257.75,66.6Z" transform="translate(0.25 0.08)"/><path class="cls-1" d="M297.74,120.32c.29-5.73.49-16.59.49-24.19V72.33c0-9.58-.79-15.11-2.17-16.49-.1-.29-.1-7.6,0-7.9l13.82-3.16a53.47,53.47,0,0,1,2.57,6.82,96.51,96.51,0,0,1,10.17-6.82A16.51,16.51,0,0,1,328,44c12.34,0,20.64,9.78,20.64,24.89,0,10.07-3.65,18.26-10.86,23-6.72,4.35-15.6,6.52-16.59,6.52a21.39,21.39,0,0,1-6.62-1.19c.1,8.5.3,13.63.89,21.43ZM331.11,72c0-9.48-3.75-15.61-9.87-15.61a12.72,12.72,0,0,0-6.32,2c-.1,4.44-.2,9.28-.2,15.21V84.87a16.73,16.73,0,0,0,6.62,1.48C327.56,86.35,331.11,81.32,331.11,72Z" transform="translate(0.25 0.08)"/><path class="cls-1" d="M374.56,98c-9.58,0-15.7-4.34-15.4-15,.1-4.25.2-8.89.2-11.75V57h-6.92V47l7.41-1.09c1.38-4.84,2.57-9.68,3.06-12.54l13.33-1c-.2,3.75-.4,9-.49,13.53l15.3-.2-1.88,12.15-13.42-.69V68.68c0,3.45,0,7.7.09,10.27.2,4.64,1.78,6.12,5.14,6.12a17.18,17.18,0,0,0,6.71-1.48l2.87,10A32.5,32.5,0,0,1,374.56,98Z" transform="translate(0.25 0.08)"/><path class="cls-1" d="M398.26,96.52c.4-5.72.69-16.68.69-24.19,0-9.77-.79-16.09-2-17.48-.1-.29-.1-7.5,0-7.8l19.15-1.77c-.49,6.12-.79,16.29-.79,28.24,0,8.49.3,17.47.69,23Zm8.29-57.66c-5.72,0-9.47-3.26-9.47-8.1a7.45,7.45,0,0,1,3-6.22A14.28,14.28,0,0,1,406.85,22c5.63,0,9.38,3.26,9.38,8a7.84,7.84,0,0,1-2.86,6.32A15.92,15.92,0,0,1,406.55,38.86Z" transform="translate(0.25 0.08)"/><path class="cls-1" d="M426.5,96.52c.4-5.72.69-16.68.69-24.19v-23c0-11.06-.79-17.38-2-19.46-.1-.29-.1-7.6,0-7.9l19.25-2c-.59,8.29-.79,17.77-.79,29.23V73.52c0,8.49.3,17.47.69,23Z" transform="translate(0.25 0.08)"/><path class="cls-1" d="M478,98.4c-15.4,0-25.67-10.07-25.67-25.48,0-9.38,3.75-17.67,10.76-22.41,6.22-4.25,15.8-6.52,16.69-6.52,14.91,0,22.71,9.28,21.23,25.08l-5.73,3.85-25.87-.29c.4,8.09,5.53,12.93,14.12,12.93A31,31,0,0,0,497.3,82.3l3.75,10A47.23,47.23,0,0,1,478,98.4Zm-8.69-31.8,15.51-.69c-.1-6.71-2.67-10.27-7.21-10.27C472.81,55.64,469.75,59.4,469.35,66.6Z" transform="translate(0.25 0.08)"/><path class="cls-1" d="M565.63,96.72c-5.43-15.3-11.75-32.78-17.18-47.3l-1,14.62c-.79,11.45-1.28,25.77-1.09,32.48h-15.3c1-6.81,2.37-20.93,3.16-32.38l.39-5.63c.79-11.36,1.49-24.88,1.39-31.6h21.52c1.29,5.33,8.2,26.66,17.58,54.51,9.08-27.85,15.89-49.18,17.38-54.51H614.7c-.1,6.81.59,20.14,1.38,31.5l.4,5.63c.79,11.25,2.07,25.77,3.06,32.48H600.88c.2-6.81-.3-21-1.09-32.38l-1-14.72c-5.43,14.52-11.84,31.9-17.18,46.91Z" transform="translate(0.25 0.08)"/><path class="cls-1" d="M650.06,98.5c-15.6,0-26-10.67-26-26.86,0-9.58,3.55-17,10.27-21.33a50.37,50.37,0,0,1,16.78-6.42c15.6,0,26,10.67,26,26.86,0,9.58-3.55,17-10.37,21.33A50,50,0,0,1,650.06,98.5Zm1.58-11.75c5,0,7.9-4.84,7.9-13.53,0-10.56-4-17.58-10.08-17.58-5,0-7.8,4.84-7.8,13.53C641.66,79.74,645.61,86.75,651.64,86.75Z" transform="translate(0.25 0.08)"/><path class="cls-1" d="M706.73,123c-16.29,0-26.06-6.22-26.06-16.78,0-.69,3.65-5.14,8.39-9.68-1.58-2.27-2.17-5.33-2.17-9.38,0-.79,3.45-4.74,6.81-7.8a17.18,17.18,0,0,1-2.57-29.72c5.63-3.85,14.91-5.73,15.8-5.73a26.64,26.64,0,0,1,12,2.57L730.23,37,736,46.07a32.58,32.58,0,0,1-2.27,4.54l-7.9,2.27a15.77,15.77,0,0,1,3.36,9.68,16.9,16.9,0,0,1-7.41,13.92c-5.63,3.85-14.91,5.73-15.8,5.73a27.08,27.08,0,0,1-5.72-.6,5.59,5.59,0,0,0-1.09,3.16c0,3,2.37,3.66,8.89,4l8.88.59c14.22.79,19.85,4.55,19.85,12.84,0,7.21-4.15,12.74-12.14,16.19A81.09,81.09,0,0,1,706.73,123Zm14.52-16c0-2.67-2.67-3.85-8.79-4.25l-9-.59a38.07,38.07,0,0,1-6.52-.89,8.13,8.13,0,0,0-1.58,4.54c0,5.14,4.44,8,12.44,8S721.25,110.84,721.25,107ZM706.83,72.83c3.95,0,6.42-3.46,6.42-9.09,0-6.32-2.86-10.47-7.21-10.47-3.85,0-6.32,3.46-6.32,9.09C699.72,68.58,702.59,72.83,706.83,72.83Z" transform="translate(0.25 0.08)"/><path class="cls-1" d="M758.28,98.1c-10.07,0-16.49-5.23-16.39-14.61.1-4.74.19-8,.19-11.55,0-9.38-.69-15.7-1.87-17.09-.1-.29-.1-7.5,0-7.8l19.15-1.67c-.49,6.12-.79,16.29-.79,28.14v3c0,7.11,1.58,9.38,6.22,9.38a13.55,13.55,0,0,0,7.61-2.37V71.64c0-10-.59-15.4-1.78-16.79-.1-.29-.1-7.5,0-7.8l19.06-1.67c-.6,6.12-.79,16.29-.79,28.14,0,8.88.79,15.2,2.47,19a22,22,0,0,1-1.48,3.06l-12.15,2a35,35,0,0,1-3.06-7.21,89.81,89.81,0,0,1-10.37,7A25,25,0,0,1,758.28,98.1Z" transform="translate(0.25 0.08)"/><path class="cls-1" d="M800.05,96.52c.39-5.72.69-16.68.69-24.19v-23c0-11.06-.79-17.38-2-19.46-.09-.29-.09-7.6,0-7.9L818,20c-.59,8.29-.79,17.77-.79,29.23V73.52c0,8.49.29,17.47.69,23Z" transform="translate(0.25 0.08)"/><path class="cls-1" d="M900.27,96.82c-9.18-.2-20-.3-27.45-.3H851.89c.59-6.81,1-19.84,1-32.38V59.4c0-12.84-.4-25.77-1-32.69l18.17.2h3.45c10,0,20.54-.2,26-.39L897.9,39.85a40.93,40.93,0,0,1-6,.59A90.94,90.94,0,0,0,875,39.06c-1.58,0-3.26,0-4.93.1-.1,4.83-.2,10.36-.3,15.89,9.48-.1,17.38-.39,20.83-.79l-1.28,13.53c-3.65-.4-11-.69-19.55-.79,0,6,.1,12,.3,17.28,2.36.1,4.64.1,6.71.1a123.61,123.61,0,0,0,19.06-1.29,42.14,42.14,0,0,1,6,.5Z" transform="translate(0.25 0.08)"/><path class="cls-1" d="M906.69,96.52c-.1-.39-.1-7.6,0-7.9,4.25-3.85,10.57-10.17,16.1-16.19a242.8,242.8,0,0,0-15.61-18.66c-.1-.3-.1-7.51,0-7.9h16.49a156.08,156.08,0,0,0,9.09,15,147.7,147.7,0,0,0,8.49-15h14.22c.1.39.1,7.6,0,7.9-4.15,3.75-10.27,9.87-15.7,15.7a235.59,235.59,0,0,0,16.09,19.15c.1.3.1,7.51,0,7.9H939.27a171.44,171.44,0,0,0-9.47-15.7,143.51,143.51,0,0,0-8.89,15.7Z" transform="translate(0.25 0.08)"/><path class="cls-1" d="M985.39,98.5c-15.6,0-26-10.67-26-26.86,0-9.58,3.55-17,10.27-21.33a50.53,50.53,0,0,1,16.78-6.42c15.61,0,26,10.67,26,26.86,0,9.58-3.55,17-10.36,21.33A50,50,0,0,1,985.39,98.5ZM987,86.75c5,0,7.9-4.84,7.9-13.53,0-10.56-4-17.58-10.08-17.58-5,0-7.79,4.84-7.79,13.53C977,79.74,980.94,86.75,987,86.75Z" transform="translate(0.25 0.08)"/><path class="cls-1" d="M1038.41,98c-9.58,0-15.7-4.34-15.4-15,.1-4.25.2-8.89.2-11.75V57h-6.92V47l7.41-1.09c1.38-4.84,2.57-9.68,3.06-12.54l13.33-1c-.2,3.75-.39,9-.49,13.53l15.3-.2L1053,57.82l-13.43-.69V68.68c0,3.45,0,7.7.1,10.27.19,4.64,1.77,6.12,5.13,6.12a17.14,17.14,0,0,0,6.71-1.48l2.87,10A32.47,32.47,0,0,1,1038.41,98Z" transform="translate(0.25 0.08)"/><path class="cls-1" d="M1062.11,96.52c.4-5.72.69-16.68.69-24.19,0-9.77-.79-16.09-2-17.48-.1-.29-.1-7.5,0-7.8L1080,45.28c-.49,6.12-.79,16.29-.79,28.24,0,8.49.3,17.47.7,23Zm8.3-57.66c-5.73,0-9.48-3.26-9.48-8.1a7.45,7.45,0,0,1,3-6.22A14.28,14.28,0,0,1,1070.7,22c5.63,0,9.38,3.26,9.38,8a7.84,7.84,0,0,1-2.86,6.32A15.89,15.89,0,0,1,1070.41,38.86Z" transform="translate(0.25 0.08)"/><path class="cls-1" d="M1112.17,98.4c-14.41,0-24.09-9.78-24.09-25.28,0-9.48,3.66-17.87,10.76-22.61,6.82-4.34,15.7-6.52,16.69-6.52a40.81,40.81,0,0,1,17.08,3.95l-4.93,13.14a36.71,36.71,0,0,1-4.45,0l-10-5.14c-5.13.89-7.9,5.73-7.9,14,0,10.07,4,15.21,11.75,15.21,4,0,8.39-1.29,13-3.66L1134,91.68C1125.8,96.33,1119,98.4,1112.17,98.4Z" transform="translate(0.25 0.08)"/><path class="cls-1" d="M1157.89,98.5c-7.2,0-14.71-1.88-19.74-5.14L1143,80.72c5.83,4.15,12.15,7.11,16.3,7.11,2.66,0,4.34-1.28,4.34-3.25s-1.48-3.16-5.13-4.65l-7.41-3.25c-8.1-3.46-11.85-8.2-11.85-15.21a14.72,14.72,0,0,1,7.51-13.13,40.19,40.19,0,0,1,12.54-4.45,46.81,46.81,0,0,1,18.46,3.86l-4.25,12a32.89,32.89,0,0,1-4.44,0l-9.77-5.53h-.3c-2.77,0-4.54,1.29-4.54,3.56,0,2.07,1.58,3.35,5.33,5l7.4,3.16c8,3.46,11.66,8.1,11.66,14.81,0,5.93-3,10.17-7.9,13A47.14,47.14,0,0,1,1157.89,98.5Z" transform="translate(0.25 0.08)"/><path class="cls-1" d="M74.08,19.14a86.17,86.17,0,0,0-9.4,12.15,92.6,92.6,0,0,0,13.51-4.21c9.2-3.59,19.91-8.42,13.94-11.62C84.4,11.31,77.56,15.65,74.08,19.14Z" transform="translate(0.25 0.08)"/><path class="cls-1" d="M114.59-.08C117.68,6,117.65,18,116.53,23.59c-1.16,5.81-3.13,11-8.13,15.11-4,3.28-15.69,7.55-25.57,9.3A68.11,68.11,0,0,0,65.4,53.81c-2.32,1.16-9.29,7,5.81,5.81,14.25-1.15,18.35,1,21.2,6.33,2.32,4.35,2.13,10.85,2.13,10.85,9.88,1.89,7.83,15.84,5.7,19.58-1.29,2.25-3,2.84-2.5,7.12.44,3.45.2,10.73-6.77,10.73s-7.46-6.89-7.46-10.38-3.76-4.79-5.88-7.12-6.4-12.63,2.85-18.15c-.11-2.65-.89-4.45-5.2-4.44-4.79,0-7.06,1.66-18-.58-12-2.45-14.34-9-14.87-14.56-.36-3.66,1.07-9.07,3.74-12.1a62.18,62.18,0,0,1-15.6,4.58c-8.13,1.17-15.59.88-26.73-5.81a11.84,11.84,0,0,1-2.63-2.13A72.05,72.05,0,1,0,114.59-.08Z" transform="translate(0.25 0.08)"/></svg>